<svg xmlns="http://www.w3.org/2000/svg" viewBox="0 0 1000 1000"><defs><style>.cls-1{fill:none;}</style></defs><title>logo_black</title><g id="Layer_2" data-name="Layer 2"><g id="Layer_1-2" data-name="Layer 1"><path class="cls-1" d="M1000,1000H0V0H1000ZM500,33C242.61,33,33.21,241.75,33,498.52,32.79,757.3,241.28,966.9,499,967c258.62.1,468-208.57,468-466.52C967,242.07,758.17,33,500,33Z"/><path d="M500,33C758.17,33,967,242.07,967,500.48,967,758.43,757.64,967.1,499,967,241.28,966.9,32.79,757.3,33,498.52,33.21,241.75,242.61,33,500,33ZM459.32,840.08h5c27-.2,52.54-6.52,76-19.92,48.3-27.64,75-68.13,74.86-125.19q-.45-246.21-.11-492.42v-6.16H575.93v6.86q0,247.71-.11,495.42c0,8.09-.51,16.49-2.66,24.22-12.11,43.64-42.56,68.11-85.12,79-9.23,2.35-19,2.66-28.72,3.94ZM543,196.35H385.38v87.94H542.82V253.24H420.46V227H543Z"/><path class="cls-1" d="M459.32,840.08v-34.3c9.74-1.28,19.49-1.59,28.72-3.94,42.56-10.84,73-35.31,85.12-79,2.15-7.73,2.65-16.13,2.66-24.22q.23-247.71.11-495.42v-6.86H615v6.16q0,246.21.11,492.42c.1,57.06-26.56,97.55-74.86,125.19-23.42,13.4-48.95,19.72-76,19.92Z"/><path class="cls-1" d="M543,196.35V227H420.46v26.22H542.82v31.05H385.38V196.35Z"/></g></g></svg>